<svg version="1.1" id="Layer_1" xmlns="http://www.w3.org/2000/svg" xmlns:xlink="http://www.w3.org/1999/xlink" x="0px" y="0px"
	 width="100%" viewBox="0 0 2650 1024" enable-background="new 0 0 1024 1024" xml:space="preserve">

<style>
    .uge {
      font: bold italic 300px serif;
	  font-family: Arial, Helvetica, sans-serif;
      fill: black;
    }
  </style>
  <text x="965" y="460" class="uge">DakaSheeta</text>
  <text x="965" y="760" class="uge">Generator</text>

<path fill="#000000" opacity="1.000000" stroke="none" 
	d="
M702.244385,591.164307 
	C705.232849,609.982849 704.235840,628.102051 698.711426,646.071411 
	C694.506226,636.268677 689.502319,627.179077 681.567566,618.370544 
	C681.774536,657.498047 669.690369,690.757690 642.079712,718.733093 
	C638.469604,709.898132 640.993408,701.020691 637.279541,692.013123 
	C611.749329,723.017090 579.510681,744.564514 546.972351,766.246765 
	C544.646729,762.207397 546.241272,759.260193 547.129761,756.363403 
	C548.033203,753.417664 549.271179,750.574463 550.732910,746.706726 
	C541.183655,756.862488 532.923157,766.549744 525.849976,777.258057 
	C522.797363,781.879639 521.144897,781.970764 517.408447,777.628784 
	C510.352936,769.429688 504.312622,760.428101 498.227356,751.484253 
	C497.513885,750.435547 497.329620,748.952515 495.594238,748.303345 
	C495.949768,754.223694 499.319275,759.259644 499.930969,765.275208 
	C495.392242,765.628357 492.088074,763.490356 489.012726,761.445068 
	C460.383850,742.405457 432.502563,722.458008 410.886627,695.142090 
	C410.512695,694.669556 409.932739,694.360168 409.059662,693.664429 
	C406.794617,701.538025 406.126678,709.264526 404.903107,717.989380 
	C391.147949,704.622498 382.831329,688.674072 374.999115,672.500000 
	C367.061676,656.108582 365.749786,638.110840 363.423096,620.152527 
	C356.668030,627.848572 352.418274,636.713257 348.525635,646.878967 
	C342.600616,635.205444 342.159668,623.325500 342.024597,611.623901 
	C341.888214,599.807617 344.265137,588.170532 347.886444,575.668762 
	C339.718201,580.005676 334.046814,585.881531 327.786835,591.837769 
	C325.704559,587.035645 327.421570,582.970764 328.062164,579.134888 
	C331.315155,559.655762 337.041840,540.925903 346.532684,523.503052 
	C348.268402,520.316711 346.937561,518.798035 344.465912,516.983643 
	C335.348724,510.290985 326.308624,503.594177 318.481812,495.221283 
	C311.849243,488.125946 310.339417,479.714325 309.848511,470.920441 
	C309.271667,460.587738 304.929413,452.027863 297.598267,445.491180 
	C290.336060,439.016052 287.265747,431.434631 285.001465,422.153687 
	C279.766418,400.696045 273.768707,379.405823 265.814789,358.680481 
	C259.273132,341.635040 252.731369,324.467957 250.165009,306.183228 
	C248.481201,294.186462 247.026978,282.177094 248.585175,269.423218 
	C262.593048,279.442291 273.957336,292.449036 287.708649,302.604584 
	C301.505402,312.793701 314.994812,323.401978 329.615692,332.421936 
	C344.322632,341.495056 359.076538,350.492096 373.493805,359.328735 
	C400.183258,291.466919 448.806274,252.485245 521.950867,252.318253 
	C594.991089,252.151489 644.026672,290.754791 671.726379,358.126862 
	C685.545959,349.551941 699.931091,340.915344 714.011902,331.808228 
	C728.281372,322.579163 741.694092,312.123810 755.334290,301.993103 
	C768.713440,292.056274 779.919922,279.589508 793.559753,267.986633 
	C795.245178,275.852386 794.359741,281.953308 794.009033,287.986481 
	C792.612122,312.014343 785.465088,334.652405 777.080322,356.987701 
	C772.809448,368.364288 768.890686,379.858276 766.804443,391.887909 
	C766.289124,394.858948 765.821594,397.726257 767.368408,400.622894 
	C774.085266,413.201080 773.055237,425.399567 764.542786,436.630859 
	C758.572998,444.507385 751.830566,451.764679 740.824158,452.289825 
	C737.792725,452.434448 737.690735,454.955109 737.427185,457.006561 
	C736.665466,462.934174 735.685791,468.879242 735.562073,474.833496 
	C735.332886,485.869324 729.530945,493.603455 721.537476,500.147400 
	C715.095886,505.420837 708.598450,510.648438 701.853271,515.518860 
	C698.549927,517.904053 697.628967,520.146423 699.442322,523.868835 
	C705.803772,536.927734 710.554688,550.604126 714.664978,564.517029 
	C717.037903,572.549377 717.809998,580.806030 718.281189,589.110413 
	C718.335693,590.070923 718.393127,591.093689 717.128235,592.241272 
	C712.468018,585.969299 707.301819,580.326477 699.808350,575.550354 
	C699.077637,581.548767 701.412048,586.043152 702.244385,591.164307 
M403.012604,389.013947 
	C403.012604,389.013947 402.994659,389.005096 402.589417,389.545624 
	C395.240784,394.091156 389.398041,399.978607 385.247101,407.681427 
	C382.490448,412.796936 379.043549,417.544678 375.827179,422.405121 
	C375.056305,423.569977 374.462433,425.163422 371.865051,424.957855 
	C371.618774,416.759216 370.959534,408.511719 372.344086,400.338043 
	C375.325897,382.735107 374.824646,381.879822 359.345825,373.276031 
	C345.376007,365.511017 331.233582,358.043091 317.707581,349.479919 
	C310.782532,345.095764 303.862549,340.528503 295.403229,339.375702 
	C292.620239,338.996429 289.957855,337.650085 287.061066,338.159882 
	C284.385651,338.630768 282.097626,339.751740 282.580811,343.011322 
	C283.568481,349.673859 286.273529,355.742828 289.489014,361.592407 
	C290.249542,362.975891 291.311829,364.043091 293.248291,362.927765 
	C294.471924,360.292145 291.594666,357.193481 293.592255,354.609314 
	C295.664032,354.449310 296.596497,355.749756 297.661896,356.743103 
	C305.822388,364.351501 314.158325,371.785370 321.645813,380.080353 
	C338.361023,398.598206 353.448212,418.178467 361.671600,442.171844 
	C363.342133,447.046082 364.069275,452.491028 366.737061,456.723877 
	C372.047394,465.149567 373.479950,474.693268 376.421112,483.824432 
	C378.168793,489.250336 379.648895,494.891968 383.034851,499.839020 
	C387.208801,498.025452 388.303497,494.273346 390.157257,491.285919 
	C395.729401,482.306213 401.569702,473.664917 411.264404,468.510071 
	C413.447510,467.349304 414.180176,465.296234 413.329468,462.955170 
	C411.198700,457.091461 408.389069,451.781616 402.962494,448.069946 
	C399.531433,445.723206 395.706970,444.227417 392.322052,442.489075 
	C391.866699,440.991638 392.501312,440.160217 392.973541,439.294861 
	C394.840088,435.874176 397.884491,433.437012 400.358917,430.525604 
	C413.201538,415.415009 437.433350,413.663757 451.707306,425.584229 
	C458.563507,431.310028 466.051758,436.389496 473.913879,440.821991 
	C483.716797,446.348663 489.444061,445.585785 498.605774,437.334381 
	C501.443054,434.778992 503.262268,431.292969 504.794098,427.736328 
	C505.350067,426.445404 505.433075,424.707336 507.347107,424.300964 
	C507.759552,424.512177 508.302185,424.636078 508.615234,424.973145 
	C514.765991,431.595856 515.977356,439.858276 513.760315,447.862396 
	C511.130310,457.357117 503.649261,463.928223 496.322144,470.216492 
	C496.106689,470.401398 495.678162,470.336792 495.349365,470.390991 
	C487.929352,471.613647 481.632599,475.234558 475.547516,479.434570 
	C468.108643,484.569000 460.232239,488.836639 451.243591,490.688263 
	C449.763428,490.993164 448.264954,491.669434 446.991943,490.470154 
	C444.790436,488.396088 441.923950,488.043182 439.228607,487.310608 
	C433.632935,485.789764 428.683014,483.299438 424.860748,478.785858 
	C423.951111,477.711700 423.174042,476.230225 420.767853,476.320221 
	C419.127289,496.271637 421.369690,515.932983 424.995453,535.705872 
	C426.138336,534.247009 426.887207,532.896667 428.893341,534.771729 
	C436.497986,541.879700 440.812256,541.767029 448.489441,534.692566 
	C449.834167,533.453369 451.232422,532.257690 452.702637,531.172852 
	C454.946930,529.516968 456.958588,529.493774 458.490082,532.228333 
	C459.034332,533.200134 459.446747,534.410950 461.699371,534.659241 
	C464.208008,528.472656 471.019684,523.715637 468.268341,515.288818 
	C467.609406,513.270630 467.789917,511.449768 468.900848,509.566010 
	C472.069824,504.192566 476.073364,499.568115 480.834625,495.562408 
	C483.944122,492.946350 486.631744,491.903290 490.199524,495.457275 
	C492.836060,498.083618 496.553986,499.658813 499.872528,501.558289 
	C505.019287,504.504242 509.351288,508.184174 512.451355,513.376282 
	C516.158569,519.585327 527.115906,521.114197 531.693054,515.373779 
	C538.725403,506.554047 548.053528,500.831818 556.783997,494.216217 
	C559.047668,492.500885 560.759277,492.130157 562.893188,494.056244 
	C567.373169,498.099854 571.376648,502.489899 574.205688,507.910095 
	C575.525269,510.438354 575.317444,512.072754 572.830688,513.720581 
	C567.817139,517.042725 562.539185,519.861816 557.180054,522.546997 
	C554.254272,524.012939 551.708191,525.856628 550.793396,529.159485 
	C548.591125,537.110901 543.899597,542.800781 536.744812,547.105347 
	C530.092468,551.107605 530.527344,555.704651 537.009888,559.270020 
	C538.298828,559.978882 539.437927,561.010254 540.525940,562.022217 
	C541.966675,563.362305 543.607605,564.140564 545.525391,563.703552 
	C551.481262,562.346130 556.189575,564.099487 560.271606,568.650940 
	C562.949524,571.636780 569.317322,570.871704 570.963562,567.685669 
	C576.988159,556.025879 583.110413,544.411194 588.834045,532.604126 
	C590.722961,528.707520 592.745850,528.385620 595.600220,530.934875 
	C598.576721,533.593140 601.358337,536.482605 604.087097,539.400146 
	C605.605713,541.023804 607.409241,542.382996 609.248413,540.804016 
	C615.676941,535.284851 621.540100,528.393433 623.282959,520.538757 
	C626.269348,507.079376 625.174194,493.057343 624.157898,479.248993 
	C623.936401,476.239319 624.773376,473.296539 627.531555,471.943329 
	C632.774658,469.370758 637.939697,468.352295 642.474609,473.663025 
	C644.637024,476.195374 646.458435,479.055542 648.823792,481.369110 
	C652.198730,484.670288 653.931458,489.382477 658.503723,492.949158 
	C661.974976,476.929810 665.425659,461.801514 670.596985,446.963959 
	C676.825745,451.325378 679.398804,450.865997 682.011658,444.277954 
	C687.118713,431.401093 693.122986,419.077393 700.468628,407.277191 
	C712.366516,388.164124 726.566284,371.117218 743.435425,356.275513 
	C745.377136,354.567169 747.145935,351.962616 750.693726,352.522980 
	C750.706909,360.927856 745.244934,367.598877 744.201599,375.601349 
	C747.605957,376.593048 749.109924,375.358551 750.165466,372.527710 
	C753.823792,362.716248 757.687317,352.983978 760.434204,342.854614 
	C761.879211,337.525879 765.217590,331.928680 757.453552,328.338226 
	C755.148315,329.779755 752.588562,331.323395 750.085754,332.954407 
	C724.834839,349.409546 699.432312,365.619415 672.809143,379.801636 
	C669.959351,381.319702 669.190918,382.798676 669.818787,386.060577 
	C672.264587,398.768463 675.069214,411.470215 674.264526,424.558258 
	C674.161560,426.232697 674.994263,428.309692 672.646057,429.417572 
	C670.818115,428.857086 670.377258,427.170197 669.682800,425.697449 
	C664.668396,415.062683 657.931030,405.501831 649.923523,397.044891 
	C645.356384,392.221436 641.768555,387.589203 642.103271,380.714355 
	C642.472900,373.121765 639.226501,365.445129 641.948364,357.988770 
	C644.093323,352.112732 643.097046,347.016968 640.439819,341.716675 
	C630.497253,321.885193 615.000183,307.499695 596.671631,295.514099 
	C562.080200,272.893799 524.575378,267.810913 485.268005,278.028351 
	C451.364563,286.841034 424.867950,306.899292 406.476105,336.960541 
	C397.658905,351.372162 391.545349,366.423187 400.478363,383.273346 
	C401.463501,385.131622 400.832458,387.708557 403.012604,389.013947 
M498.446411,658.660950 
	C481.712738,658.242310 465.400574,661.024353 449.340942,665.401123 
	C444.605835,666.691589 443.813995,670.677917 447.555542,674.544800 
	C456.154938,683.432251 466.365204,690.293091 476.801514,696.789246 
	C479.744446,698.621094 482.840973,699.187195 485.890442,696.276978 
	C487.573486,694.670837 490.048859,694.496582 492.488098,694.617188 
	C501.103485,695.043335 508.485321,692.885925 512.901367,684.587036 
	C514.065186,682.399902 515.694336,680.462708 517.078125,678.389709 
	C521.148804,672.291321 522.177185,671.709595 528.717041,674.692200 
	C532.477234,676.406982 535.154480,675.912354 538.266418,673.471252 
	C542.744202,669.958618 547.904602,668.052368 554.323608,668.932983 
	C550.165894,665.579285 547.835388,660.666748 542.418762,659.714233 
	C531.958313,657.874634 521.503540,655.581238 510.893646,658.913757 
	C507.011017,660.133179 503.075928,660.528381 498.446411,658.660950 
M502.888397,611.439941 
	C488.241119,612.412231 473.920105,615.372803 459.589569,618.366577 
	C439.573364,622.547974 419.354736,625.819946 399.796753,632.005859 
	C392.830566,634.209229 391.731506,637.429382 395.784332,643.422485 
	C400.578186,650.511414 408.153564,651.246216 415.513062,651.506714 
	C424.971680,651.841675 433.601837,647.711243 442.516144,645.162720 
	C445.069519,644.432617 445.868378,642.904114 446.329315,640.620239 
	C447.058411,637.007629 444.660522,635.128906 442.478149,633.064514 
	C441.329865,631.978271 439.300323,631.226624 440.144562,629.150757 
	C440.858154,627.395996 442.773285,627.132446 444.402191,627.025696 
	C448.555328,626.753113 452.740265,626.887146 456.880493,626.508606 
	C480.542999,624.345215 504.037567,620.671387 528.021667,622.416260 
	C544.274780,623.598633 560.636108,622.976929 576.739136,626.395142 
	C581.350525,627.373962 586.322754,627.641235 590.399597,623.779846 
	C588.324890,620.294800 585.653442,618.187256 581.738342,617.569336 
	C578.131042,616.999878 574.598083,615.968506 570.995422,615.359375 
	C548.753784,611.599548 526.356140,610.379761 502.888397,611.439941 
M638.065430,542.184937 
	C632.961121,564.384888 622.161316,584.289917 612.209106,604.975952 
	C618.242981,607.833862 624.385010,608.368652 630.206726,610.009460 
	C632.842712,610.752380 634.044556,609.853882 635.579895,607.948425 
	C642.861511,598.911499 647.897278,588.718201 651.852783,577.885498 
	C653.394226,573.664001 655.279968,569.396118 655.461426,565.007324 
	C656.195618,547.249023 654.227661,529.834229 646.935608,513.367371 
	C645.927673,511.091248 645.233093,508.450104 641.749939,506.677429 
	C641.450134,518.799438 640.665649,530.181641 638.065430,542.184937 
M406.297607,599.214661 
	C412.552643,609.654053 412.639618,609.700195 422.376923,607.747437 
	C434.874084,605.241272 434.865112,605.246277 428.532135,594.065613 
	C413.564362,567.640442 403.484741,539.785767 403.607971,508.935333 
	C403.613373,507.585266 404.052490,505.846466 401.853180,505.242584 
	C395.302032,515.858948 391.878693,527.683777 391.741394,539.774048 
	C391.618408,550.603760 388.748138,561.626526 394.540741,572.571655 
	C398.913116,580.833191 401.735046,590.065002 406.297607,599.214661 
M622.030273,644.558655 
	C630.893127,647.699341 644.984619,640.919250 646.106201,632.951782 
	C644.584473,631.508484 642.502197,631.361084 640.657898,630.662598 
	C628.608643,626.099792 615.781860,627.997314 603.380127,626.297546 
	C599.527161,625.769470 599.923767,628.612976 600.910095,631.394531 
	C602.847656,636.859009 608.056152,639.439148 611.382935,643.672119 
	C613.821228,646.774536 614.382019,646.592529 618.423340,644.262878 
	C619.146484,643.846130 620.370422,644.298035 622.030273,644.558655 
M450.918884,561.030273 
	C446.220795,573.141296 444.960388,585.383545 449.563995,597.831665 
	C450.303070,599.830139 450.880219,602.401306 453.816193,601.661560 
	C459.369995,600.262146 465.209351,599.960999 470.574249,597.656494 
	C470.479401,596.920959 470.536560,596.379700 470.337067,595.960632 
	C465.067810,584.888550 459.401550,574.002197 454.943085,562.551453 
	C454.407959,561.177063 453.665283,559.156677 450.918884,561.030273 
M589.738708,567.084900 
	C585.774475,576.231812 583.081360,585.934204 577.707275,594.466858 
	C576.021362,597.143738 576.894287,598.851868 579.929993,599.496948 
	C583.503296,600.256165 587.187134,600.666382 590.635437,601.799011 
	C594.853027,603.184448 596.629883,601.108215 597.446533,597.645325 
	C599.580933,588.595093 599.614014,579.511230 597.075806,570.521790 
	C596.124023,567.150879 595.866699,563.420410 592.955017,560.519165 
	C590.829956,562.163086 590.768799,564.445923 589.738708,567.084900 
M739.893677,398.545654 
	C737.300903,399.997253 737.100525,402.501984 737.186462,405.025421 
	C737.395386,411.156525 737.514404,417.279510 736.549683,423.364594 
	C736.226624,425.402161 737.022644,426.821716 738.607483,428.062775 
	C741.616577,430.419250 744.851746,430.291779 747.919128,428.645844 
	C751.167480,426.902832 754.328003,424.674713 753.543396,420.223389 
	C752.770386,415.837250 751.928284,411.435791 750.682983,407.167511 
	C749.246460,402.243622 746.314697,398.637848 739.893677,398.545654 
z"/>
<path fill="#000000" opacity="1.000000" stroke="none" 
	d="
M571.759766,481.346375 
	C564.833862,475.797150 557.890869,471.504913 548.747192,473.103424 
	C546.281433,473.534546 544.865417,471.552094 543.734314,469.624847 
	C540.770447,464.574951 537.581970,459.709961 532.735657,456.212219 
	C530.466797,454.574738 530.505188,452.161072 530.816711,449.871490 
	C531.711731,443.293427 532.777405,436.737518 533.859619,430.186737 
	C534.146057,428.452667 535.060059,427.089600 537.040283,426.840851 
	C539.349121,426.550781 540.252136,428.216309 541.160095,429.822174 
	C544.406616,435.564117 548.167114,440.676697 554.736877,443.128662 
	C558.352600,444.478119 561.710388,444.683594 565.361450,443.339264 
	C572.482971,440.717041 578.666443,436.510010 584.831543,432.257874 
	C588.529175,429.707520 592.143188,427.033447 595.753296,424.359009 
	C612.646729,411.844025 631.262329,415.873108 644.463928,430.174774 
	C647.613464,433.586731 650.357117,437.287537 652.117126,441.408997 
	C651.682068,442.037872 651.529541,442.506317 651.309692,442.540344 
	C642.497314,443.906433 638.468079,449.311615 634.867920,457.475220 
	C628.479309,471.962067 617.776489,483.177765 601.885010,488.118073 
	C600.035889,488.692902 598.246094,488.988281 597.132263,491.196625 
	C596.057800,493.327057 593.819946,491.927277 592.232178,491.338013 
	C585.200012,488.728058 578.445435,485.515717 571.759766,481.346375 
z"/>
<path fill="#000000" opacity="1.000000" stroke="none" 
	d="
M403.021210,389.023254 
	C402.869080,377.087402 402.493988,365.182587 407.473297,353.808960 
	C413.021484,341.135956 421.551270,330.640717 431.948425,322.023865 
	C443.161652,312.730621 453.924042,302.589020 467.731049,296.790619 
	C471.263580,295.307098 474.688690,293.633392 478.431519,292.766541 
	C483.338898,291.629974 487.753113,289.364929 492.306641,287.284454 
	C506.608429,280.749908 521.806946,278.712830 538.357788,278.816833 
	C535.928955,282.028809 533.224670,281.942169 530.784180,282.017120 
	C519.592285,282.360779 509.665131,287.859009 498.852814,289.736847 
	C497.177185,290.027863 496.133057,291.456299 495.333221,293.038147 
	C489.153259,305.259552 477.828003,311.388092 465.558105,313.374451 
	C455.721619,314.966888 450.129120,319.801056 446.022278,327.421936 
	C441.613495,335.603119 438.692780,344.539368 433.877075,352.572693 
	C432.381042,355.068268 433.060760,358.113556 433.012909,360.932190 
	C432.873993,369.113312 429.154327,373.138336 421.141602,374.045441 
	C418.340302,374.362579 415.553864,374.966248 412.816040,375.658142 
	C406.265808,377.313416 404.429169,382.569763 403.183044,388.683044 
	C402.994659,389.005096 403.012604,389.013947 403.021210,389.023254 
z"/>
<path fill="#000000" opacity="1.000000" stroke="none" 
	d="
M549.427734,401.423187 
	C548.224060,402.605652 547.282654,403.544281 546.330872,404.472290 
	C541.598389,409.086548 539.557739,408.673889 536.734192,402.535706 
	C535.162903,399.119812 536.654724,391.793488 539.970642,389.874084 
	C548.157776,385.135040 557.082336,382.843018 566.612549,383.324768 
	C567.037292,383.346252 567.441040,383.783020 568.555908,384.439117 
	C560.033020,387.956543 555.467407,395.211365 549.427734,401.423187 
z"/>
<path fill="#000000" opacity="1.000000" stroke="none" 
	d="
M496.584778,400.421661 
	C489.950317,394.939972 484.483734,388.675812 477.416046,383.945892 
	C485.374512,380.170471 502.783905,385.391144 506.133606,389.443665 
	C508.738159,392.594635 509.027832,402.329041 506.484802,405.566864 
	C505.155823,407.258850 503.662933,407.170074 502.210999,405.855499 
	C500.366577,404.185608 498.627655,402.399231 496.584778,400.421661 
z"/>
</svg>